<?xml version="1.0" standalone="no"?>
<!DOCTYPE svg PUBLIC "-//W3C//DTD SVG 20010904//EN"
 "http://www.w3.org/TR/2001/REC-SVG-20010904/DTD/svg10.dtd">
<svg version="1.0" xmlns="http://www.w3.org/2000/svg"
 width="300.000000pt" height="306.000000pt" viewBox="0 0 300.000000 306.000000"
 preserveAspectRatio="xMidYMid meet">
<metadata>
Created by potrace 1.10, written by Peter Selinger 2001-2011
</metadata>
<g transform="translate(0.000000,306.000000) scale(0.100000,-0.100000)"
fill="#000000" stroke="none">
<path d="M150 2485 l0 -385 385 0 385 0 0 385 0 385 -385 0 -385 0 0 -385z
m720 330 c9 -10 11 -94 7 -335 -2 -176 -6 -323 -10 -326 -4 -4 -589 -8 -664
-5 -10 1 -13 75 -13 334 0 184 3 337 7 340 3 4 154 7 333 7 274 0 330 -2 340
-15z"/>
<path d="M295 2803 c-16 -2 -40 -14 -52 -26 -23 -20 -23 -23 -23 -292 0 -271
0 -272 23 -293 23 -21 30 -22 293 -22 l271 0 24 26 c24 25 24 27 27 276 3 265
-1 297 -42 321 -21 12 -456 21 -521 10z m518 -315 l-3 -273 -275 -3 -275 -2 0
275 0 275 278 0 277 0 -2 -272z"/>
<path d="M370 2485 l0 -165 165 0 165 0 0 165 0 165 -165 0 -165 0 0 -165z
m284 109 c3 -9 6 -60 6 -114 0 -71 -4 -101 -14 -109 -9 -8 -51 -11 -122 -9
l-109 3 -3 109 c-1 61 0 116 2 123 4 10 34 13 120 13 95 0 115 -3 120 -16z"/>
<path d="M1045 2850 c-41 -46 29 -116 75 -75 22 20 27 64 8 83 -19 19 -63 14
-83 -8z"/>
<path d="M1485 2846 c-28 -43 14 -97 63 -81 11 3 24 17 31 31 17 37 -8 74 -49
74 -20 0 -35 -8 -45 -24z"/>
<path d="M1932 2858 c-19 -19 -14 -63 8 -83 46 -41 116 29 75 75 -20 22 -64
27 -83 8z"/>
<path d="M2140 2485 l0 -385 385 0 385 0 0 385 0 385 -385 0 -385 0 0 -385z
m730 5 c0 -220 -4 -340 -10 -341 -5 0 -156 0 -335 0 -179 0 -329 0 -335 0 -11
1 -15 663 -3 674 3 4 159 7 345 7 l338 0 0 -340z"/>
<path d="M2290 2803 c-19 -3 -45 -14 -57 -25 -23 -21 -23 -24 -23 -293 0 -271
0 -272 23 -293 23 -21 30 -22 293 -22 l271 0 24 26 c24 25 24 27 27 277 4 300
2 309 -80 326 -46 10 -401 13 -478 4z m513 -315 l-2 -273 -275 -3 -275 -2 -3
275 -3 275 280 0 280 0 -2 -272z"/>
<path d="M2360 2485 l0 -165 165 0 165 0 0 165 0 165 -165 0 -165 0 0 -165z
m285 0 l0 -120 -120 0 -120 0 -3 109 c-1 61 0 116 2 123 4 11 32 13 123 11
l118 -3 0 -120z"/>
<path d="M1157 2742 c-24 -26 -21 -49 9 -77 21 -20 23 -25 10 -25 -9 0 -19 -7
-22 -15 -8 -19 -24 -20 -24 -1 0 30 -59 35 -85 6 -22 -24 -14 -65 16 -81 l21
-11 -23 -12 c-35 -17 -37 -60 -4 -82 l26 -17 -23 -11 c-46 -23 -25 -96 28 -96
52 0 73 73 28 95 l-22 11 25 22 26 23 14 -21 c19 -27 58 -25 80 4 l18 23 10
-21 c13 -26 57 -32 79 -11 24 24 21 74 -5 83 l-20 8 20 18 c28 25 28 76 1 83
-11 3 -20 8 -20 12 0 3 9 12 20 19 23 14 26 50 7 76 -18 25 -68 18 -83 -11
l-11 -23 -11 25 c-14 31 -61 34 -85 7z m122 -104 c-10 -4 -19 -14 -19 -22 0
-11 -7 -8 -24 9 l-25 25 21 23 21 24 23 -26 c22 -25 22 -26 3 -33z m9 -94 c13
-9 12 -12 -7 -17 -12 -3 -21 -13 -21 -23 0 -16 -2 -16 -16 4 -8 12 -22 22 -30
22 -11 0 -7 9 13 29 24 25 29 27 37 12 5 -9 16 -21 24 -27z m-118 11 c19 -20
20 -25 7 -25 -9 0 -21 -8 -27 -17 -10 -17 -10 -17 -20 0 -6 9 -18 17 -27 17
-13 0 -11 5 8 24 31 31 31 31 59 1z"/>
<path d="M1382 2748 c-17 -17 -15 -64 4 -82 33 -34 84 -8 84 43 0 34 -17 51
-50 51 -14 0 -31 -5 -38 -12z"/>
<path d="M1603 2748 c-22 -29 -22 -48 2 -77 23 -27 23 -29 6 -34 -30 -8 -32
-44 -4 -77 19 -23 21 -30 9 -30 -18 0 -31 -40 -21 -69 13 -41 80 -38 91 4 8
32 -4 65 -23 65 -12 0 -9 7 11 25 14 13 26 29 26 35 0 22 -21 50 -38 50 -13 0
-11 6 11 25 31 30 33 42 11 73 -17 24 -65 30 -81 10z"/>
<path d="M1822 2748 c-19 -19 -14 -66 8 -80 11 -7 20 -16 20 -19 0 -4 -9 -9
-20 -12 -31 -8 -27 -60 8 -86 21 -16 23 -20 10 -21 -10 0 -23 -9 -30 -19 -12
-19 -12 -19 -23 2 -13 27 -57 34 -79 12 -38 -38 -2 -104 50 -91 14 4 28 16 31
26 5 19 7 18 25 -5 25 -32 63 -33 84 0 20 30 15 56 -13 71 l-23 11 25 23 25
24 16 -23 c22 -30 63 -25 84 11 16 30 9 52 -22 71 -20 13 -68 0 -68 -18 0 -19
-16 -19 -24 0 -3 8 -13 15 -22 15 -13 0 -11 5 10 25 14 13 26 33 26 43 0 41
-69 69 -98 40z"/>
<path d="M1485 2516 c-35 -53 34 -115 79 -70 23 22 20 71 -3 84 -32 16 -59 12
-76 -14z"/>
<path d="M1936 2414 c-24 -24 -20 -61 9 -80 l26 -17 -23 -11 c-32 -16 -32 -66
0 -82 l23 -11 -26 -17 c-32 -21 -31 -65 1 -81 l22 -11 -25 -22 -26 -23 -19 21
c-25 26 -52 25 -75 -3 l-18 -23 -23 28 c-19 23 -20 28 -8 28 24 0 41 43 27 69
-7 11 -18 21 -26 21 -8 0 -15 5 -15 10 0 6 7 10 15 10 9 0 20 11 27 25 9 19 8
29 -6 50 -17 26 -45 32 -77 15 -29 -16 -23 -90 7 -90 20 0 17 -13 -6 -28 -28
-17 -27 -70 1 -80 l20 -8 -20 -18 c-28 -25 -28 -76 -1 -83 11 -3 20 -8 20 -12
0 -3 -9 -12 -20 -19 -28 -17 -27 -68 1 -83 l21 -11 -21 -14 c-31 -22 -28 -71
4 -86 l25 -11 -23 -11 c-45 -23 -29 -96 22 -96 57 0 82 79 30 95 -20 7 -19 7
5 30 15 13 26 31 26 39 0 17 -27 46 -42 46 -6 0 1 11 16 25 14 13 26 31 26 40
0 9 -12 27 -26 40 -21 20 -23 25 -10 25 9 0 21 10 26 23 5 12 9 17 9 10 3 -41
70 -57 95 -22 l14 21 22 -22 22 -22 -21 -14 c-27 -20 -28 -69 -2 -84 31 -16
59 -12 75 11 l14 21 22 -22 22 -22 -21 -14 c-23 -16 -27 -44 -11 -75 21 -39
100 -12 100 34 0 9 -9 26 -20 37 l-21 21 22 18 c17 14 20 24 15 45 -12 49 -81
61 -93 15 -5 -19 -7 -19 -34 7 l-29 27 23 11 c32 16 33 52 4 78 l-25 22 22 11
c31 15 32 51 3 77 l-25 22 22 11 c30 15 29 66 -1 80 -13 5 -23 12 -23 15 0 3
10 10 23 15 28 13 34 51 11 76 -21 23 -57 25 -78 3z"/>
<path d="M1264 2295 c-14 -21 -15 -31 -6 -50 7 -14 18 -25 27 -25 8 0 15 -4
15 -10 0 -5 -7 -10 -15 -10 -8 0 -19 -10 -26 -21 -14 -27 3 -69 27 -69 13 0
11 -6 -10 -25 -14 -13 -26 -29 -26 -35 0 -22 21 -50 37 -50 12 0 9 -6 -11 -25
-33 -31 -33 -58 1 -83 26 -19 27 -20 5 -26 -12 -4 -25 -19 -29 -34 -5 -21 -1
-30 19 -45 l25 -19 -21 -22 -21 -22 -21 25 c-19 22 -26 24 -50 16 -39 -14 -54
-57 -29 -85 10 -11 28 -20 41 -20 24 0 54 24 54 43 0 7 6 1 13 -13 15 -31 58
-38 81 -14 23 22 17 66 -11 80 l-23 11 25 11 c32 15 35 64 4 86 l-21 14 21 11
c28 15 29 66 1 83 -11 7 -20 16 -20 19 0 4 9 9 20 12 15 4 20 14 20 36 0 20
-7 35 -20 43 -11 7 -20 16 -20 19 0 4 9 9 20 12 15 4 20 14 20 36 0 20 -7 35
-20 43 -23 15 -26 28 -6 28 28 0 35 59 10 84 -24 24 -61 20 -80 -9z"/>
<path d="M1502 2313 c-36 -14 -33 -93 3 -93 8 0 15 -4 15 -10 0 -5 -7 -10 -15
-10 -9 0 -20 -12 -26 -26 -14 -38 11 -74 51 -74 59 0 76 80 21 102 l-26 11 24
6 c13 4 27 15 31 26 17 48 -29 88 -78 68z"/>
<path d="M1047 2192 c-22 -24 -21 -55 1 -75 37 -33 92 -11 92 37 0 48 -62 73
-93 38z"/>
<path d="M167 1972 c-10 -10 -17 -30 -17 -45 0 -45 67 -65 93 -27 13 19 13 19
30 0 22 -26 63 -26 79 0 15 23 28 26 28 6 0 -34 64 -34 86 -1 l17 26 11 -23
c23 -46 96 -25 96 27 0 52 -73 73 -96 27 l-11 -23 -17 26 c-20 31 -59 33 -80
4 l-14 -21 -21 21 c-29 29 -55 26 -80 -6 -15 -21 -20 -24 -21 -11 0 18 -28 38
-53 38 -8 0 -21 -8 -30 -18z"/>
<path d="M827 1972 c-22 -24 -21 -55 1 -75 37 -33 92 -11 92 37 0 48 -62 73
-93 38z"/>
<path d="M1050 1970 c-28 -28 -25 -55 8 -79 20 -15 23 -20 10 -21 -10 0 -22
-10 -29 -21 l-11 -21 -12 23 c-15 30 -40 35 -71 15 -57 -38 -6 -115 59 -90 9
3 16 12 16 20 0 20 13 17 28 -6 14 -22 61 -27 80 -8 19 19 14 66 -8 80 -23 15
-26 28 -6 28 29 0 35 59 8 83 -25 22 -48 21 -72 -3z"/>
<path d="M1498 1978 c-31 -25 -31 -56 -2 -83 15 -14 22 -25 16 -25 -6 0 -19
-11 -28 -25 -15 -23 -15 -27 0 -50 11 -17 26 -25 46 -25 20 0 35 8 46 25 15
23 15 27 0 50 -9 14 -22 25 -28 25 -6 0 1 11 16 25 20 19 26 31 21 48 -8 26
-32 47 -55 47 -9 0 -23 -6 -32 -12z"/>
<path d="M2377 1972 c-24 -26 -21 -58 6 -77 15 -12 18 -19 9 -22 -7 -3 -18
-16 -23 -30 -20 -53 45 -97 85 -57 22 21 20 50 -5 75 -20 20 -20 23 -5 31 19
11 22 68 4 86 -18 18 -53 15 -71 -6z"/>
<path d="M2484 1964 c-16 -24 -16 -29 -3 -53 20 -35 68 -37 85 -3 l11 23 17
-26 c10 -15 26 -25 41 -25 50 0 73 60 37 93 -27 24 -59 21 -78 -8 l-17 -26
-11 23 c-17 35 -60 36 -82 2z"/>
<path d="M2816 1968 c-23 -32 -20 -55 10 -75 25 -16 26 -17 5 -24 -11 -5 -23
-20 -27 -35 -6 -22 -2 -32 21 -50 27 -21 27 -22 6 -29 -11 -3 -21 -13 -21 -22
0 -12 -7 -9 -25 11 -13 14 -31 26 -40 26 -9 0 -27 -12 -40 -26 -19 -20 -25
-23 -25 -11 0 16 -28 37 -50 37 -6 0 -22 -12 -35 -26 -19 -21 -25 -23 -25 -10
0 9 -11 21 -25 28 -52 24 -100 -46 -59 -87 22 -21 66 -15 79 11 l10 21 18 -23
c23 -30 61 -31 81 -2 l16 22 16 -22 c20 -29 69 -30 85 -1 l11 21 14 -21 c17
-24 52 -27 78 -8 25 18 18 68 -11 83 l-23 11 25 11 c32 15 35 66 5 84 -23 15
-26 28 -6 28 29 0 35 59 8 83 -26 23 -58 21 -76 -5z"/>
<path d="M717 1862 c-24 -26 -21 -57 8 -80 24 -19 24 -20 5 -25 -39 -10 -38
-80 1 -92 29 -9 69 2 69 20 0 21 13 19 28 -5 16 -27 68 -27 82 -1 17 32 11 60
-15 77 -21 14 -31 15 -50 6 -14 -7 -25 -18 -25 -27 0 -22 -17 -18 -23 5 -3 11
-13 20 -22 20 -14 0 -12 5 9 21 30 24 34 59 8 82 -24 22 -55 21 -75 -1z"/>
<path d="M2267 1862 c-33 -37 -11 -92 37 -92 31 0 46 19 46 57 0 49 -51 71
-83 35z"/>
<path d="M167 1752 c-20 -22 -22 -63 -5 -80 19 -19 65 -14 82 9 l14 21 11 -21
c23 -41 101 -18 101 30 0 25 -34 59 -59 59 -11 0 -29 -12 -40 -27 -15 -21 -20
-24 -21 -11 0 18 -28 38 -53 38 -8 0 -21 -8 -30 -18z"/>
<path d="M502 1754 c-41 -28 -22 -94 28 -94 35 0 60 23 60 55 0 23 -32 55 -55
55 -6 0 -21 -7 -33 -16z"/>
<path d="M1386 1754 c-19 -18 -21 -65 -4 -82 16 -16 63 -15 75 1 21 26 21 46
2 71 -23 30 -50 33 -73 10z"/>
<path d="M1601 1744 c-19 -25 -19 -45 2 -71 12 -16 59 -17 75 -1 18 18 14 63
-6 81 -26 24 -47 21 -71 -9z"/>
<path d="M1937 1752 c-20 -22 -22 -63 -5 -80 30 -30 98 -1 98 41 0 23 -35 57
-58 57 -11 0 -26 -8 -35 -18z"/>
<path d="M392 1644 c-24 -17 -30 -62 -10 -82 17 -17 64 -15 82 4 22 21 20 50
-4 74 -24 24 -38 25 -68 4z"/>
<path d="M612 1644 c-41 -29 -19 -94 33 -94 52 0 74 65 33 94 -12 9 -27 16
-33 16 -6 0 -21 -7 -33 -16z"/>
<path d="M940 1640 c-39 -39 -15 -90 42 -90 21 0 31 6 35 20 3 11 8 20 12 20
3 0 12 -9 19 -20 16 -26 57 -26 79 0 17 19 17 19 30 0 21 -30 70 -27 85 5 l11
25 11 -23 c13 -25 59 -35 82 -16 17 14 19 60 2 77 -19 19 -65 14 -82 -9 l-14
-21 -11 21 c-15 28 -66 29 -83 2 -12 -19 -13 -19 -35 5 -28 31 -48 30 -78 -2
-19 -20 -25 -23 -25 -11 0 16 -28 37 -49 37 -6 0 -20 -9 -31 -20z"/>
<path d="M1491 1634 c-25 -32 -25 -33 -5 -62 21 -31 69 -30 89 2 19 28 9 58
-25 76 -28 15 -36 13 -59 -16z"/>
<path d="M1832 1644 c-24 -17 -30 -62 -10 -82 30 -30 98 -1 98 41 0 20 -34 57
-53 57 -7 0 -23 -7 -35 -16z"/>
<path d="M2162 1644 c-28 -20 -30 -69 -3 -84 30 -16 60 -12 73 10 15 24 28 26
28 5 0 -18 40 -29 69 -20 42 13 35 86 -9 100 -24 8 -60 -11 -60 -30 0 -8 -4
-15 -10 -15 -5 0 -10 7 -10 15 0 13 -29 35 -47 35 -5 0 -19 -7 -31 -16z"/>
<path d="M2482 1638 c-17 -17 -15 -54 4 -72 21 -22 61 -20 76 4 12 19 13 19
34 -1 31 -29 76 -22 88 14 13 37 -2 61 -42 65 -21 2 -36 -3 -50 -18 l-19 -21
-6 21 c-4 15 -13 20 -39 20 -19 0 -39 -5 -46 -12z"/>
<path d="M2816 1634 c-21 -21 -20 -47 2 -67 36 -33 92 -13 92 31 0 16 -5 33
-12 40 -17 17 -64 15 -82 -4z"/>
<path d="M843 1540 c-43 -18 -41 -84 4 -101 59 -22 102 59 51 95 -25 18 -25
18 -55 6z"/>
<path d="M1605 1526 c-28 -28 -24 -60 11 -83 22 -14 26 -14 49 1 33 21 34 68
3 90 -30 21 -35 20 -63 -8z"/>
<path d="M1722 1534 c-31 -21 -30 -69 2 -89 27 -18 57 -9 74 22 9 14 11 14 21
-5 16 -29 65 -30 85 -1 l14 21 11 -21 c15 -28 62 -28 87 0 l18 20 8 -20 c10
-28 55 -27 85 1 19 18 23 19 23 5 0 -38 73 -43 85 -6 7 22 25 25 25 4 0 -19
48 -31 69 -18 20 13 26 60 10 79 -18 22 -70 18 -76 -6 -3 -11 -8 -20 -12 -20
-3 0 -12 9 -19 20 -17 28 -72 28 -79 -1 -6 -20 -6 -20 -27 -1 -11 10 -27 22
-33 26 -17 9 -53 -11 -53 -30 0 -12 -7 -10 -31 10 -38 32 -44 32 -72 2 -22
-24 -23 -24 -35 -5 -16 26 -68 26 -82 0 -10 -19 -11 -19 -35 5 -28 28 -33 29
-63 8z"/>
<path d="M2380 1530 c-23 -23 -24 -29 -11 -63 11 -28 37 -38 69 -26 30 11 32
83 3 99 -28 14 -38 13 -61 -10z"/>
<path d="M2723 1540 c-43 -17 -41 -84 4 -101 28 -10 57 1 67 27 6 16 8 15 22
-4 17 -24 62 -30 82 -10 7 7 12 24 12 38 0 14 -5 31 -12 38 -19 19 -66 14 -80
-7 -12 -19 -13 -19 -35 5 -24 26 -27 27 -60 14z"/>
<path d="M598 1515 c-14 -31 1 -70 29 -77 49 -13 87 36 63 81 -17 32 -77 29
-92 -4z"/>
<path d="M1046 1524 c-34 -34 -8 -84 44 -84 19 0 33 7 40 19 10 19 11 19 35
-5 31 -30 40 -30 70 2 14 15 25 22 25 16 0 -6 11 -19 25 -28 23 -15 27 -15 50
0 27 18 34 63 13 84 -19 19 -65 14 -82 -9 l-14 -21 -11 21 c-8 14 -21 21 -41
21 -18 0 -34 -8 -44 -21 l-14 -21 -11 21 c-14 25 -62 28 -85 5z"/>
<path d="M2486 1524 c-32 -32 -8 -84 39 -84 44 0 66 40 45 81 -13 23 -62 26
-84 3z"/>
<path d="M403 1429 c-13 -5 -23 -15 -23 -24 0 -21 -13 -19 -28 5 -14 22 -61
27 -80 8 -15 -15 -15 -61 0 -76 19 -19 59 -14 85 10 19 18 23 19 23 5 0 -16
28 -37 50 -37 6 0 22 12 35 26 19 20 25 23 25 11 0 -25 38 -41 66 -28 43 19
41 92 -4 103 -27 7 -62 -9 -62 -28 0 -16 -3 -15 -22 3 -33 29 -40 32 -65 22z"/>
<path d="M1508 1429 c-52 -30 -37 -99 22 -99 60 0 74 71 20 100 -22 12 -21 12
-42 -1z"/>
<path d="M1046 1414 c-22 -21 -20 -50 4 -74 24 -24 38 -25 68 -4 24 17 30 62
10 82 -17 17 -64 15 -82 -4z"/>
<path d="M1822 1418 c-7 -7 -12 -24 -12 -38 0 -14 5 -31 12 -38 19 -19 65 -14
82 9 l14 21 11 -21 c15 -28 62 -28 87 0 l18 20 8 -20 c15 -42 98 -18 98 28 0
22 -30 51 -52 51 -27 0 -48 -11 -48 -26 0 -20 -13 -17 -28 6 -16 26 -57 26
-79 0 -17 -19 -17 -19 -30 0 -16 22 -62 27 -81 8z"/>
<path d="M2266 1414 c-19 -18 -21 -55 -4 -72 17 -17 64 -15 82 4 32 32 8 84
-39 84 -13 0 -31 -7 -39 -16z"/>
<path d="M2486 1414 c-19 -18 -21 -55 -4 -72 20 -20 76 -15 88 7 21 41 -1 81
-45 81 -13 0 -31 -7 -39 -16z"/>
<path d="M2817 1412 c-33 -36 -9 -82 42 -82 34 0 51 17 51 50 0 14 -5 31 -12
38 -18 18 -63 14 -81 -6z"/>
<path d="M278 1309 c-24 -14 -23 -62 2 -84 27 -25 71 -10 84 27 17 49 -38 85
-86 57z"/>
<path d="M600 1299 c-17 -30 -8 -62 21 -78 24 -13 29 -13 53 2 27 18 33 45 16
78 -15 27 -75 26 -90 -2z"/>
<path d="M826 1304 c-22 -21 -20 -50 4 -74 24 -24 38 -25 68 -4 24 16 28 44
12 75 -13 23 -62 26 -84 3z"/>
<path d="M1485 1296 c-18 -27 -9 -57 22 -74 14 -9 14 -11 -5 -21 -48 -25 -12
-111 41 -97 48 12 55 83 11 100 -16 6 -15 8 4 22 28 20 30 69 3 84 -32 17 -60
12 -76 -14z"/>
<path d="M1602 1308 c-29 -29 -1 -98 40 -98 22 0 48 33 48 61 0 32 -17 49 -50
49 -14 0 -31 -5 -38 -12z"/>
<path d="M1710 1301 c-15 -30 -12 -56 10 -76 24 -22 66 -13 75 16 7 21 8 21
29 -6 18 -22 28 -27 48 -22 13 4 29 17 35 29 l10 23 12 -23 c6 -12 19 -22 29
-22 12 -1 9 -5 -10 -16 -35 -18 -39 -67 -8 -86 23 -15 26 -28 6 -28 -31 0 -35
-63 -5 -84 l21 -14 -22 -22 -22 -22 -14 21 c-17 23 -63 28 -82 9 -18 -18 -14
-63 6 -81 25 -23 47 -21 71 4 l19 21 22 -22 22 -22 -21 -14 c-27 -20 -27 -59
1 -78 l22 -16 -22 -16 c-24 -17 -29 -53 -10 -72 7 -7 27 -12 45 -12 26 0 36 6
45 24 13 30 4 56 -22 63 -25 7 -26 19 0 26 40 10 34 87 -8 87 -10 0 -6 8 12
25 32 30 32 64 -1 80 l-22 11 26 27 27 26 11 -22 c16 -33 49 -33 79 0 19 20
26 23 26 12 0 -43 76 -50 87 -9 7 26 19 25 26 0 7 -26 33 -35 63 -22 18 9 24
19 24 45 0 18 -5 38 -12 45 -19 19 -55 14 -72 -10 l-16 -22 -16 22 c-21 31
-84 28 -84 -4 0 -20 -13 -17 -28 6 -18 29 -82 24 -82 -6 0 -19 -5 -18 -35 10
-25 24 -25 24 -6 31 12 3 24 18 27 32 6 21 2 31 -18 47 l-26 21 29 23 c24 19
29 20 29 8 0 -9 11 -21 24 -27 50 -23 98 40 61 81 -26 29 -85 24 -85 -6 0 -20
-13 -17 -28 6 -16 26 -57 26 -79 0 -17 -19 -17 -19 -30 0 -8 11 -25 20 -39 20
-13 0 -32 -9 -41 -20 -17 -19 -17 -19 -30 0 -19 26 -69 27 -83 1z"/>
<path d="M2266 1304 c-41 -40 7 -109 59 -86 19 9 25 19 25 45 0 18 -5 38 -12
45 -17 17 -54 15 -72 -4z"/>
<path d="M2384 1312 c-31 -21 -21 -85 15 -97 33 -10 61 11 61 48 0 18 -5 38
-12 45 -13 13 -47 16 -64 4z"/>
<path d="M2487 1302 c-10 -10 -17 -26 -17 -35 0 -21 35 -57 55 -57 21 0 55 36
55 59 0 46 -62 67 -93 33z"/>
<path d="M2815 1300 c-22 -24 -13 -66 16 -75 19 -7 19 -7 -6 -31 -31 -29 -31
-29 -38 -4 -4 14 -14 20 -35 20 -58 0 -81 -51 -41 -91 l21 -21 -22 -15 c-29
-21 -23 -63 12 -83 30 -16 52 -9 71 22 13 20 0 68 -18 68 -20 0 -19 5 9 35 22
24 24 24 29 6 7 -29 53 -38 77 -16 27 24 26 71 -1 86 l-21 11 21 14 c27 20 28
69 2 84 -30 15 -56 12 -76 -10z"/>
<path d="M162 1198 c-19 -19 -14 -63 8 -83 46 -41 116 29 75 75 -20 22 -64 27
-83 8z"/>
<path d="M496 1194 c-23 -22 -20 -60 7 -79 20 -15 21 -17 5 -26 -10 -5 -18
-18 -18 -27 -1 -13 -6 -10 -21 11 -34 45 -99 28 -99 -27 0 -54 75 -73 101 -25
l11 21 12 -23 c14 -30 52 -36 77 -13 25 23 24 59 -3 78 l-22 16 22 16 c41 29
19 94 -33 94 -13 0 -31 -7 -39 -16z"/>
<path d="M1045 1190 c-22 -24 -13 -68 16 -79 21 -7 20 -8 -5 -24 -31 -21 -33
-50 -5 -78 l21 -21 -22 -15 c-29 -21 -23 -63 12 -83 30 -16 52 -9 71 22 13 20
0 68 -18 68 -20 0 -19 5 9 35 22 24 24 24 29 6 7 -29 53 -38 77 -16 22 20 26
65 8 83 -19 19 -65 14 -82 -9 l-14 -21 -22 22 -22 22 21 14 c23 17 28 63 9 82
-18 18 -63 14 -83 -8z"/>
<path d="M1265 1190 c-41 -46 29 -116 75 -75 22 20 25 46 10 76 -14 25 -62 25
-85 -1z"/>
<path d="M1382 1198 c-19 -19 -14 -66 7 -80 19 -12 19 -13 -5 -35 -13 -12 -24
-29 -24 -38 0 -21 36 -55 59 -55 48 0 71 78 30 101 l-21 11 21 14 c23 17 28
63 9 82 -15 15 -61 15 -76 0z"/>
<path d="M717 1082 c-22 -25 -22 -55 2 -76 25 -23 63 -17 76 12 5 12 12 22 15
22 3 0 10 -10 15 -22 20 -47 95 -24 95 28 0 53 -67 73 -96 29 l-17 -26 -11 23
c-15 30 -57 35 -79 10z"/>
<path d="M1603 1088 c-23 -30 -23 -49 2 -74 29 -29 31 -34 10 -34 -22 0 -35
-40 -22 -68 19 -42 88 -37 102 8 8 25 -11 60 -32 60 -14 0 -13 4 5 23 24 26
29 66 10 85 -16 16 -63 15 -75 0z"/>
<path d="M1710 1081 c-15 -30 -12 -56 10 -76 46 -41 116 29 75 75 -23 26 -71
26 -85 1z"/>
<path d="M2375 1076 c-17 -26 -8 -70 17 -79 9 -3 6 -10 -9 -22 -31 -22 -30
-60 2 -81 l26 -17 -23 -11 c-32 -16 -32 -67 0 -81 12 -5 22 -12 22 -15 0 -3
-10 -10 -22 -15 -31 -14 -32 -66 -2 -79 22 -10 22 -10 -5 -36 -26 -27 -26 -27
-36 -6 -15 30 -67 29 -80 -1 -12 -29 -18 -29 -30 0 -14 31 -65 31 -81 -1 l-11
-23 -17 26 c-21 32 -59 33 -81 3 -14 -20 -17 -21 -28 -7 -20 25 -48 31 -73 14
-26 -17 -32 -53 -12 -73 18 -18 69 -15 84 5 12 17 14 17 29 -4 21 -30 51 -29
78 1 l21 24 11 -22 c15 -30 66 -29 80 2 5 12 12 22 15 22 3 0 10 -10 15 -22
14 -32 65 -32 81 1 l12 23 11 -21 c13 -24 69 -29 89 -9 20 20 14 56 -13 74
l-26 17 23 11 c32 16 32 67 1 81 -26 11 -30 25 -8 25 19 0 40 43 32 65 -4 8
-17 19 -29 24 l-22 8 22 12 c27 15 31 75 6 89 -15 8 -15 11 5 31 25 25 27 54
5 75 -23 24 -61 20 -79 -8z"/>
<path d="M2484 964 c-16 -24 -16 -29 -3 -53 19 -34 69 -37 83 -4 l10 21 27
-26 28 -26 -22 -11 c-28 -14 -34 -51 -11 -76 24 -26 65 -21 80 10 l12 23 11
-21 c7 -11 18 -21 26 -21 22 0 18 -14 -7 -25 -29 -13 -35 -51 -12 -76 24 -27
60 -24 81 7 16 26 17 26 25 5 4 -12 15 -21 25 -21 14 -1 12 -5 -9 -21 -48 -36
-32 -89 27 -89 58 0 77 55 29 87 -26 16 -26 17 -5 25 12 4 24 14 27 23 9 23
-5 65 -21 65 -21 0 -19 13 5 28 11 7 20 23 20 36 0 53 -65 76 -94 34 l-16 -22
-16 22 c-20 28 -58 28 -79 0 -15 -21 -17 -22 -26 -5 -5 9 -18 17 -27 17 -13 1
-10 6 11 21 30 23 36 59 11 83 -24 24 -61 20 -80 -9 l-17 -26 -11 23 c-17 35
-60 36 -82 2z m351 -184 c8 0 15 -4 15 -10 0 -5 -7 -10 -15 -10 -7 0 -18 -7
-23 -16 -8 -15 -11 -15 -30 4 l-21 21 22 25 c21 24 22 24 29 5 4 -10 14 -19
23 -19z"/>
<path d="M150 495 l0 -385 385 0 385 0 0 385 0 385 -385 0 -385 0 0 -385z
m714 329 c14 -13 16 -57 16 -332 0 -174 -4 -323 -8 -330 -7 -9 -82 -12 -343
-10 l-334 3 -3 334 c-2 261 1 336 10 343 7 4 156 8 330 8 275 0 319 -2 332
-16z"/>
<path d="M242 787 c-21 -23 -22 -30 -22 -293 0 -270 0 -271 23 -292 23 -21 30
-22 294 -22 288 0 286 0 312 48 5 10 10 131 10 270 l2 253 -30 29 -29 30 -269
0 c-269 0 -270 0 -291 -23z m571 -292 l2 -275 -277 0 -278 0 0 278 0 277 275
-2 276 -2 2 -276z"/>
<path d="M370 495 l0 -165 165 0 165 0 0 165 0 165 -165 0 -165 0 0 -165z
m271 115 c17 -10 19 -22 19 -113 0 -56 -4 -108 -8 -115 -6 -9 -38 -12 -123
-10 l-114 3 -3 114 c-2 85 1 117 10 123 19 11 196 10 219 -2z"/>
<path d="M1155 860 c-22 -24 -13 -70 15 -77 26 -7 25 -19 0 -26 -45 -12 -33
-81 16 -93 22 -6 32 -2 51 20 15 18 23 22 23 12 0 -16 29 -36 54 -36 44 0 61
68 24 94 l-22 16 22 16 c25 18 30 65 8 83 -24 20 -69 9 -83 -19 -7 -14 -13
-20 -13 -13 0 19 -30 43 -54 43 -13 0 -31 -9 -41 -20z m145 -94 c0 -2 -9 -6
-20 -9 -11 -3 -20 -12 -20 -21 0 -11 -6 -9 -24 9 l-25 25 21 23 21 23 23 -23
c13 -13 24 -25 24 -27z"/>
<path d="M1712 868 c-19 -19 -14 -66 8 -80 25 -16 25 -24 -1 -31 -29 -8 -23
-67 9 -83 l23 -11 -26 -17 c-43 -28 -25 -96 26 -96 20 0 59 33 59 51 0 20 -21
49 -35 49 -8 0 -15 5 -15 10 0 6 7 10 15 10 24 0 39 43 26 69 -7 11 -18 21
-26 21 -8 0 -15 5 -15 10 0 6 7 10 15 10 9 0 20 11 27 25 23 50 -51 102 -90
63z"/>
<path d="M2156 864 c-33 -33 -7 -94 41 -94 25 0 53 30 53 57 0 44 -63 69 -94
37z"/>
<path d="M1382 758 c-20 -20 -15 -76 7 -88 41 -21 81 1 81 45 0 45 -58 73 -88
43z"/>
<path d="M1492 758 c-19 -19 -14 -66 8 -80 24 -15 26 -28 5 -28 -22 0 -37 -35
-26 -63 18 -46 86 -47 97 -2 8 34 -3 62 -29 70 l-22 8 23 4 c33 6 47 49 27 79
-17 26 -62 33 -83 12z"/>
<path d="M1606 644 c-32 -32 -10 -94 34 -94 41 0 68 68 38 98 -17 17 -54 15
-72 -4z"/>
<path d="M2597 642 c-33 -36 -8 -92 40 -92 25 0 53 30 53 57 0 46 -62 69 -93
35z"/>
<path d="M1046 531 c-23 -25 -17 -63 12 -77 l23 -11 -26 -17 c-33 -22 -31 -65
3 -82 l23 -11 -26 -17 c-34 -22 -33 -60 1 -83 25 -16 26 -17 5 -24 -29 -11
-38 -55 -16 -79 26 -29 85 -24 85 6 0 20 13 17 28 -6 18 -30 69 -27 84 5 l11
25 11 -23 c13 -25 59 -35 82 -16 31 25 7 99 -32 99 -25 0 -54 -20 -54 -37 0
-13 -5 -11 -23 8 -22 23 -22 25 -5 42 24 24 23 64 -2 79 -23 15 -26 28 -6 28
15 0 26 21 26 50 0 10 -12 28 -27 39 -21 15 -24 20 -11 21 9 0 24 10 32 22 13
18 16 19 16 6 0 -23 36 -41 65 -34 46 12 45 91 0 102 -33 8 -56 -1 -62 -26 -5
-19 -6 -19 -25 5 -24 31 -62 32 -82 3 l-16 -22 -16 22 c-19 27 -55 28 -78 3z
m108 -66 c3 -8 13 -15 22 -15 13 0 11 -5 -10 -25 l-26 -24 -26 24 c-21 20 -23
25 -10 25 9 0 19 7 22 15 4 8 10 15 14 15 4 0 10 -7 14 -15z m0 -110 c3 -8 13
-15 22 -15 13 0 11 -6 -10 -25 -26 -24 -27 -24 -46 -5 -19 19 -19 21 -2 39 21
24 28 25 36 6z m12 -120 c20 -18 23 -25 11 -25 -9 0 -20 -7 -25 -16 -8 -15
-11 -15 -31 5 -20 20 -20 22 -3 40 9 11 18 20 19 20 1 1 14 -10 29 -24z"/>
<path d="M1382 538 c-7 -7 -12 -27 -12 -45 0 -26 5 -36 22 -42 l22 -8 -21 -11
c-30 -17 -38 -48 -19 -77 17 -27 45 -32 77 -15 26 14 25 62 -2 86 l-20 18 20
8 c29 10 30 73 2 88 -26 13 -54 13 -69 -2z"/>
<path d="M1826 534 c-17 -16 -20 -41 -10 -68 9 -23 80 -22 93 2 9 16 11 15 26
-5 19 -28 56 -30 78 -5 22 25 21 48 -3 72 -26 26 -45 25 -71 -1 l-21 -21 -14
21 c-18 25 -56 27 -78 5z"/>
<path d="M2382 534 c-40 -28 -16 -94 35 -94 25 0 53 30 53 58 0 20 -33 52 -55
52 -6 0 -21 -7 -33 -16z"/>
<path d="M2706 531 c-22 -25 -17 -62 10 -76 l22 -11 -25 -22 -26 -23 -14 21
c-20 28 -59 26 -79 -5 l-17 -26 -11 23 c-23 46 -96 25 -96 -27 0 -51 73 -73
95 -29 l11 22 22 -25 23 -26 -21 -14 c-28 -20 -26 -59 6 -80 26 -16 26 -17 5
-25 -42 -15 -40 -83 3 -94 32 -8 66 4 66 22 0 20 13 17 28 -6 18 -29 82 -24
82 6 0 20 13 17 28 -6 14 -22 61 -27 80 -8 19 19 14 66 -8 80 -23 15 -26 28
-6 28 30 0 35 59 7 84 -25 22 -62 17 -76 -10 l-11 -22 -22 25 -23 26 21 14
c29 20 25 57 -7 82 -21 15 -24 20 -11 21 9 0 22 8 27 18 9 16 11 15 26 -5 30
-42 95 -20 95 31 0 54 -80 74 -99 25 -7 -21 -8 -20 -24 5 -21 31 -57 34 -81 7z
m-6 -171 c0 -6 8 -14 19 -18 17 -6 16 -9 -10 -35 -20 -20 -29 -24 -29 -13 0 8
-7 19 -16 24 -15 8 -15 11 2 30 21 23 34 27 34 12z m16 -125 c19 -17 22 -25
12 -25 -9 0 -23 -10 -31 -22 -13 -19 -16 -20 -16 -6 -1 9 -8 21 -17 26 -15 8
-15 11 2 30 11 11 20 21 21 21 1 1 14 -10 29 -24z m110 0 c22 -20 23 -25 10
-25 -10 0 -20 -9 -23 -20 -5 -20 -6 -19 -29 5 -22 24 -23 26 -6 44 9 11 18 20
19 20 1 1 14 -10 29 -24z"/>
<path d="M1827 422 c-26 -28 -19 -82 9 -82 19 0 18 -5 -10 -35 -24 -25 -24
-25 -31 -6 -15 49 -95 28 -95 -25 0 -53 73 -73 96 -25 12 23 12 23 19 2 3 -12
13 -21 21 -21 20 0 17 -13 -6 -28 -22 -14 -27 -61 -8 -80 18 -18 63 -14 83 8
22 24 13 68 -16 79 -21 7 -20 8 5 24 32 22 33 52 2 80 l-24 21 22 11 c28 14
32 49 7 74 -26 26 -53 27 -74 3z"/>
<path d="M1498 318 c-30 -24 -31 -56 -3 -82 25 -23 25 -25 7 -30 -48 -16 -26
-96 26 -96 16 0 33 5 40 12 19 19 14 65 -9 82 l-21 14 21 11 c40 22 18 101
-28 101 -9 0 -24 -6 -33 -12z"/>
<path d="M1606 314 c-22 -21 -20 -61 4 -81 19 -17 19 -17 0 -30 -22 -16 -27
-62 -8 -81 21 -21 66 -14 84 13 19 29 12 59 -19 72 l-22 10 23 12 c42 22 20
101 -28 101 -10 0 -26 -7 -34 -16z"/>
<path d="M2047 312 c-26 -28 -19 -82 9 -82 20 0 17 -13 -6 -28 -22 -14 -27
-61 -8 -80 18 -18 63 -14 83 8 22 24 13 68 -16 79 -21 7 -20 8 5 24 31 21 34
56 8 80 -24 22 -55 21 -75 -1z"/>
<path d="M2377 312 c-33 -37 -11 -92 37 -92 48 0 73 62 38 93 -24 22 -55 21
-75 -1z"/>
</g>
</svg>
