<?xml version="1.0" standalone="no"?>
<!DOCTYPE svg PUBLIC "-//W3C//DTD SVG 20010904//EN"
 "http://www.w3.org/TR/2001/REC-SVG-20010904/DTD/svg10.dtd">
<svg version="1.0" xmlns="http://www.w3.org/2000/svg"
 width="400.000000pt" height="400.000000pt" viewBox="0 0 400.000000 400.000000"
 preserveAspectRatio="xMidYMid meet">
<metadata>
Created by potrace 1.16, written by Peter Selinger 2001-2019
</metadata>
<g transform="translate(0.000000,400.000000) scale(0.100000,-0.100000)"
fill="#000000" stroke="none">
<path d="M210 3410 l0 -380 380 0 380 0 0 380 0 380 -380 0 -380 0 0 -380z
m650 0 l0 -270 -270 0 -270 0 0 270 0 270 270 0 270 0 0 -270z"/>
<path d="M430 3410 l0 -160 160 0 160 0 0 160 0 160 -160 0 -160 0 0 -160z"/>
<path d="M1080 3735 l0 -55 50 0 50 0 0 -110 0 -110 -50 0 -50 0 0 -50 0 -50
270 0 270 0 0 50 0 50 50 0 50 0 0 -105 0 -105 -160 0 -160 0 0 -55 0 -55 -55
0 -55 0 0 -55 0 -55 -55 0 -55 0 0 55 0 55 -50 0 -50 0 0 -55 0 -55 50 0 50 0
0 -55 0 -55 -50 0 -50 0 0 -50 0 -50 -55 0 -55 0 0 50 0 50 -165 0 -165 0 0
-50 0 -50 -50 0 -50 0 0 50 0 50 -55 0 -55 0 0 -50 0 -50 55 0 55 0 0 -55 0
-55 -55 0 -55 0 0 -55 0 -55 55 0 55 0 0 -110 0 -110 -55 0 -55 0 0 55 0 55
-55 0 -55 0 0 55 0 55 -55 0 -55 0 0 -160 0 -160 55 0 55 0 0 50 0 50 55 0 55
0 0 -105 0 -105 55 0 55 0 0 -55 0 -55 50 0 50 0 0 55 0 55 55 0 55 0 0 55 0
55 55 0 55 0 0 -55 0 -55 110 0 110 0 0 -110 0 -110 105 0 105 0 0 -55 0 -55
55 0 55 0 0 -55 0 -55 -110 0 -110 0 0 -50 0 -50 55 0 55 0 0 -110 0 -110
-105 0 -105 0 0 -110 0 -110 -110 0 -110 0 0 55 0 55 55 0 55 0 0 55 0 55
-110 0 -110 0 0 55 0 55 110 0 110 0 0 55 0 55 -110 0 -110 0 0 -55 0 -55 -55
0 -55 0 0 -55 0 -55 55 0 55 0 0 -110 0 -110 -55 0 -55 0 0 55 0 55 -50 0 -50
0 0 110 0 110 -110 0 -110 0 0 -55 0 -55 -55 0 -55 0 0 -55 0 -55 55 0 55 0 0
-55 0 -55 -55 0 -55 0 0 -50 0 -50 55 0 55 0 0 50 0 50 55 0 55 0 0 55 0 55
55 0 55 0 0 -105 0 -105 270 0 270 0 0 -55 0 -55 50 0 50 0 0 -55 0 -55 -50 0
-50 0 0 -110 0 -110 50 0 50 0 0 -50 0 -50 -50 0 -50 0 0 -55 0 -55 105 0 105
0 0 -55 0 -55 -55 0 -55 0 0 -55 0 -55 325 0 325 0 0 55 0 55 110 0 110 0 0
-55 0 -55 55 0 55 0 0 55 0 55 55 0 55 0 0 55 0 55 -55 0 -55 0 0 55 0 55 105
0 105 0 0 105 0 105 -50 0 -50 0 0 55 0 55 -55 0 -55 0 0 160 0 160 160 0 160
0 0 -105 0 -105 55 0 55 0 0 -55 0 -55 -55 0 -55 0 0 -55 0 -55 55 0 55 0 0
-160 0 -160 -110 0 -110 0 0 -110 0 -110 55 0 55 0 0 55 0 55 55 0 55 0 0 -55
0 -55 55 0 55 0 0 55 0 55 55 0 55 0 0 -55 0 -55 105 0 105 0 0 55 0 55 55 0
55 0 0 -55 0 -55 110 0 110 0 0 55 0 55 -55 0 -55 0 0 55 0 55 55 0 55 0 0 55
0 55 105 0 105 0 0 50 0 50 55 0 55 0 0 55 0 55 55 0 55 0 0 165 0 165 -55 0
-55 0 0 50 0 50 -55 0 -55 0 0 -50 0 -50 -55 0 -55 0 0 -55 0 -55 -50 0 -50 0
0 215 0 215 -165 0 -165 0 0 55 0 55 55 0 55 0 0 55 0 55 55 0 55 0 0 50 0 50
55 0 55 0 0 55 0 55 50 0 50 0 0 -55 0 -55 55 0 55 0 0 -105 0 -105 -55 0 -55
0 0 55 0 55 -50 0 -50 0 0 -55 0 -55 50 0 50 0 0 -55 0 -55 55 0 55 0 0 -55 0
-55 110 0 110 0 0 165 0 165 -55 0 -55 0 0 50 0 50 55 0 55 0 0 55 0 55 -110
0 -110 0 0 55 0 55 55 0 55 0 0 55 0 55 55 0 55 0 0 215 0 215 -55 0 -55 0 0
55 0 55 55 0 55 0 0 160 0 160 -55 0 -55 0 0 -50 0 -50 -55 0 -55 0 0 -55 0
-55 55 0 55 0 0 -55 0 -55 -55 0 -55 0 0 -55 0 -55 -105 0 -105 0 0 -160 0
-160 105 0 105 0 0 -110 0 -110 -55 0 -55 0 0 55 0 55 -50 0 -50 0 0 -110 0
-110 -110 0 -110 0 0 55 0 55 55 0 55 0 0 55 0 55 -165 0 -165 0 0 -55 0 -55
55 0 55 0 0 -55 0 -55 -55 0 -55 0 0 -105 0 -105 -50 0 -50 0 0 -55 0 -55 -55
0 -55 0 0 -110 0 -110 -55 0 -55 0 0 165 0 165 55 0 55 0 0 50 0 50 -55 0 -55
0 0 110 0 110 110 0 110 0 0 55 0 55 -55 0 -55 0 0 55 0 55 -55 0 -55 0 0 55
0 55 -55 0 -55 0 0 160 0 160 55 0 55 0 0 55 0 55 55 0 55 0 0 55 0 55 -55 0
-55 0 0 50 0 50 110 0 110 0 0 55 0 55 50 0 50 0 0 270 0 270 -50 0 -50 0 0
55 0 55 50 0 50 0 0 55 0 55 -270 0 -270 0 0 -55 0 -55 -50 0 -50 0 0 55 0 55
-55 0 -55 0 0 -55 0 -55 -55 0 -55 0 0 -55 0 -55 -55 0 -55 0 0 55 0 55 -55 0
-55 0 0 -55 0 -55 -55 0 -55 0 0 55 0 55 -50 0 -50 0 0 55 0 55 -55 0 -55 0 0
-55 0 -55 -110 0 -110 0 0 55 0 55 -105 0 -105 0 0 -55z m1190 -110 l0 -55 50
0 50 0 0 55 0 55 55 0 55 0 0 -55 0 -55 110 0 110 0 0 -55 0 -55 55 0 55 0 0
-105 0 -105 -110 0 -110 0 0 -110 0 -110 -55 0 -55 0 0 -55 0 -55 -55 0 -55 0
0 -50 0 -50 -50 0 -50 0 0 -165 0 -165 -110 0 -110 0 0 -55 0 -55 110 0 110 0
0 -105 0 -105 -110 0 -110 0 0 55 0 55 -55 0 -55 0 0 160 0 160 -55 0 -55 0 0
-55 0 -55 -55 0 -55 0 0 -55 0 -55 55 0 55 0 0 -105 0 -105 -215 0 -215 0 0
105 0 105 -55 0 -55 0 0 -160 0 -160 55 0 55 0 0 -55 0 -55 110 0 110 0 0 -55
0 -55 -110 0 -110 0 0 55 0 55 -55 0 -55 0 0 55 0 55 -55 0 -55 0 0 55 0 55
-50 0 -50 0 0 55 0 55 -110 0 -110 0 0 50 0 50 -110 0 -110 0 0 110 0 110 55
0 55 0 0 -55 0 -55 55 0 55 0 0 55 0 55 55 0 55 0 0 -55 0 -55 105 0 105 0 0
-55 0 -55 55 0 55 0 0 55 0 55 55 0 55 0 0 -55 0 -55 55 0 55 0 0 165 0 165
-165 0 -165 0 0 -55 0 -55 -50 0 -50 0 0 110 0 110 50 0 50 0 0 50 0 50 110 0
110 0 0 110 0 110 55 0 55 0 0 -55 0 -55 55 0 55 0 0 55 0 55 50 0 50 0 0 55
0 55 110 0 110 0 0 -110 0 -110 55 0 55 0 0 55 0 55 55 0 55 0 0 -110 0 -110
55 0 55 0 0 110 0 110 50 0 50 0 0 -55 0 -55 55 0 55 0 0 215 0 215 -105 0
-105 0 0 -50 0 -50 -55 0 -55 0 0 -55 0 -55 -55 0 -55 0 0 55 0 55 -55 0 -55
0 0 50 0 50 -55 0 -55 0 0 55 0 55 55 0 55 0 0 -55 0 -55 55 0 55 0 0 -50 0
-50 55 0 55 0 0 50 0 50 55 0 55 0 0 55 0 55 -55 0 -55 0 0 55 0 55 55 0 55 0
0 -55z m-650 -110 l0 -55 -165 0 -165 0 0 55 0 55 165 0 165 0 0 -55z m-650
-750 l0 -55 -110 0 -110 0 0 55 0 55 110 0 110 0 0 -55z m1190 -760 l0 -55 55
0 55 0 0 55 0 55 105 0 105 0 0 -55 0 -55 -105 0 -105 0 0 -55 0 -55 50 0 50
0 0 -55 0 -55 55 0 55 0 0 -160 0 -160 -55 0 -55 0 0 -55 0 -55 -50 0 -50 0 0
55 0 55 -165 0 -165 0 0 55 0 55 55 0 55 0 0 55 0 55 -55 0 -55 0 0 50 0 50
110 0 110 0 0 110 0 110 -55 0 -55 0 0 -55 0 -55 -55 0 -55 0 0 110 0 110 110
0 110 0 0 -55z m970 -270 l0 -105 -55 0 -55 0 0 -55 0 -55 -55 0 -55 0 0 55 0
55 55 0 55 0 0 105 0 105 55 0 55 0 0 -105z m-1510 -55 l0 -50 -110 0 -110 0
0 50 0 50 110 0 110 0 0 -50z m210 -165 l0 -215 55 0 55 0 0 -55 0 -55 55 0
55 0 0 -105 0 -105 -55 0 -55 0 0 -165 0 -165 55 0 55 0 0 55 0 55 55 0 55 0
0 -105 0 -105 -165 0 -165 0 0 -110 0 -110 -55 0 -55 0 0 110 0 110 -105 0
-105 0 0 -55 0 -55 55 0 55 0 0 -55 0 -55 -55 0 -55 0 0 55 0 55 -110 0 -110
0 0 105 0 105 55 0 55 0 0 -50 0 -50 55 0 55 0 0 105 0 105 -165 0 -165 0 0
55 0 55 55 0 55 0 0 110 0 110 110 0 110 0 0 -110 0 -110 55 0 55 0 0 55 0 55
105 0 105 0 0 105 0 105 -55 0 -55 0 0 -50 0 -50 -50 0 -50 0 0 50 0 50 -110
0 -110 0 0 55 0 55 -55 0 -55 0 0 55 0 55 55 0 55 0 0 55 0 55 110 0 110 0 0
-55 0 -55 50 0 50 0 0 160 0 160 55 0 55 0 0 -215z m1190 -160 l0 -55 110 0
110 0 0 -55 0 -55 -110 0 -110 0 0 55 0 55 -55 0 -55 0 0 55 0 55 55 0 55 0 0
-55z m220 -430 l0 -165 -165 0 -165 0 0 165 0 165 165 0 165 0 0 -165z m430
110 l0 -55 -55 0 -55 0 0 -55 0 -55 55 0 55 0 0 -55 0 -55 -160 0 -160 0 0 55
0 55 50 0 50 0 0 55 0 55 55 0 55 0 0 55 0 55 55 0 55 0 0 -55z m-430 -435 l0
-50 -55 0 -55 0 0 -55 0 -55 -55 0 -55 0 0 -55 0 -55 -55 0 -55 0 0 55 0 55
55 0 55 0 0 55 0 55 -55 0 -55 0 0 50 0 50 165 0 165 0 0 -50z"/>
<path d="M1720 3085 l0 -55 -50 0 -50 0 0 -105 0 -105 105 0 105 0 0 -55 0
-55 165 0 165 0 0 105 0 105 -55 0 -55 0 0 -50 0 -50 -55 0 -55 0 0 105 0 105
-55 0 -55 0 0 55 0 55 -55 0 -55 0 0 -55z"/>
<path d="M3020 3410 l0 -380 380 0 380 0 0 380 0 380 -380 0 -380 0 0 -380z
m650 0 l0 -270 -270 0 -270 0 0 270 0 270 270 0 270 0 0 -270z"/>
<path d="M3240 3410 l0 -160 160 0 160 0 0 160 0 160 -160 0 -160 0 0 -160z"/>
<path d="M2910 2870 l0 -50 55 0 55 0 0 -55 0 -55 -105 0 -105 0 0 -55 0 -55
-55 0 -55 0 0 -55 0 -55 55 0 55 0 0 -55 0 -55 50 0 50 0 0 -50 0 -50 55 0 55
0 0 -55 0 -55 55 0 55 0 0 160 0 160 -55 0 -55 0 0 -55 0 -55 -55 0 -55 0 0
110 0 110 110 0 110 0 0 110 0 110 -55 0 -55 0 0 50 0 50 -55 0 -55 0 0 -50z"/>
<path d="M3240 2655 l0 -55 105 0 105 0 0 55 0 55 -105 0 -105 0 0 -55z"/>
<path d="M210 2005 l0 -55 110 0 110 0 0 -55 0 -55 -55 0 -55 0 0 -105 0 -105
160 0 160 0 0 50 0 50 55 0 55 0 0 110 0 110 -55 0 -55 0 0 -110 0 -110 -50 0
-50 0 0 110 0 110 -55 0 -55 0 0 55 0 55 -110 0 -110 0 0 -55z"/>
<path d="M210 600 l0 -380 380 0 380 0 0 380 0 380 -380 0 -380 0 0 -380z
m650 0 l0 -270 -270 0 -270 0 0 270 0 270 270 0 270 0 0 -270z"/>
<path d="M430 600 l0 -160 160 0 160 0 0 160 0 160 -160 0 -160 0 0 -160z"/>
<path d="M3670 495 l0 -55 -55 0 -55 0 0 -55 0 -55 -55 0 -55 0 0 -55 0 -55
165 0 165 0 0 55 0 55 -55 0 -55 0 0 55 0 55 55 0 55 0 0 55 0 55 -55 0 -55 0
0 -55z"/>
</g>
</svg>
