<svg width="16" height="16" viewBox="0 0 16 16" fill="none" xmlns="http://www.w3.org/2000/svg">
<path fill-rule="evenodd" clip-rule="evenodd" d="M0.799045 7.60134C2.86646 4.83073 5.26561 3.33337 8.00002 3.33337C10.7344 3.33337 13.1336 4.83073 15.201 7.60134C15.3775 7.83785 15.3775 8.16223 15.201 8.39874C13.1336 11.1694 10.7344 12.6667 8.00002 12.6667C5.26561 12.6667 2.86646 11.1694 0.799045 8.39874C0.622568 8.16223 0.622568 7.83785 0.799045 7.60134ZM2.17517 8.00004C3.99877 10.2856 5.94138 11.3334 8.00002 11.3334C10.0587 11.3334 12.0013 10.2856 13.8249 8.00004C12.0013 5.71446 10.0587 4.66671 8.00002 4.66671C5.94138 4.66671 3.99877 5.71446 2.17517 8.00004Z" fill="#0049FF"/>
<path fill-rule="evenodd" clip-rule="evenodd" d="M8.00002 7.00004C7.44773 7.00004 7.00002 7.44776 7.00002 8.00004C7.00002 8.55233 7.44773 9.00004 8.00002 9.00004C8.5523 9.00004 9.00002 8.55233 9.00002 8.00004C9.00002 7.44776 8.5523 7.00004 8.00002 7.00004ZM5.66669 8.00004C5.66669 6.71138 6.71136 5.66671 8.00002 5.66671C9.28868 5.66671 10.3334 6.71138 10.3334 8.00004C10.3334 9.28871 9.28868 10.3334 8.00002 10.3334C6.71136 10.3334 5.66669 9.28871 5.66669 8.00004Z" fill="#0049FF"/>
</svg>
