<svg width="20" height="20" viewBox="0 0 20 20" fill="none" xmlns="http://www.w3.org/2000/svg">
<path fill-rule="evenodd" clip-rule="evenodd" d="M16.482 16.4819C14.7745 18.1893 12.4637 19.1667 10.0002 19.1667C7.53665 19.1667 5.2258 18.1893 3.51835 16.4819C1.8109 14.7744 0.833496 12.4636 0.833496 10C0.833496 7.53652 1.8109 5.22568 3.51835 3.51823C5.2258 1.81078 7.53665 0.833374 10.0002 0.833374C12.4637 0.833374 14.7745 1.81078 16.482 3.51823C18.1894 5.22568 19.1668 7.53652 19.1668 10C19.1668 12.4636 18.1894 14.7744 16.482 16.4819ZM9.16713 5.00002V11.6667C9.16713 12.1269 9.54023 12.5 10.0005 12.5C10.4607 12.5 10.8338 12.1269 10.8338 11.6667V5.00002C10.8338 4.53978 10.4607 4.16668 10.0005 4.16668C9.54023 4.16668 9.16713 4.53978 9.16713 5.00002ZM10.0004 15.4167C10.5757 15.4167 11.042 14.9503 11.042 14.375C11.042 13.7997 10.5757 13.3334 10.0004 13.3334C9.42507 13.3334 8.9587 13.7997 8.9587 14.375C8.9587 14.9503 9.42507 15.4167 10.0004 15.4167Z" fill="#ECA20F"/>
</svg>
